# xmcd
#
# Track frame offsets:
# 150
# 21079
# 39309
# 55290
# 83271
# 106152
# 128208
# 148389
# 167969
# 185149
# 204429
# 221160
#
# Disc length: 3226 seconds
#
#
# Revision: 0
# Processed by: cddbd v1.5.2PL0 Copyright (c) Steve Scherf et al.
# Submitted via: FreeRIP 2.35 
#
DISCID=ac0c980c
DTITLE=Deana Carter - The Chain
DYEAR=2007
DGENRE=Country
TTITLE0=Crying
TTITLE1=Help Me Make It Through The Night
TTITLE2=Love Is Like A Butterfly
TTITLE3=The Boxer
TTITLE4=Lay Lady Lay
TTITLE5=The Weight
TTITLE6=I'm Not Lisa
TTITLE7=Swinging
TTITLE8=On The Road Again
TTITLE9=Good Hearted  Woman
TTITLE10=He Thinks I Still Care
TTITLE11=Old Man
EXTD=
EXTT0=
EXTT1=
EXTT2=
EXTT3=
EXTT4=
EXTT5=
EXTT6=
EXTT7=
EXTT8=
EXTT9=
EXTT10=
EXTT11=
PLAYORDER=
